# xmcd CD database file
#
# Track frame offsets:
#	150
#	19685
#	37177
#	56682
#
# Disc length: 986 seconds
#
# Revision: 0
# Processed by: cddbd v1.5.1PL0 Copyright (c) Steve Scherf et al.
# Submitted via: CDex 1.51
#
DISCID=2f03d804
DTITLE=ROBIN and DOORS - 遊歩道
DYEAR=1999
DGENRE=Game
TTITLE0=遊歩道 (セガサターン ヴァージョン)
TTITLE1=ゴー！ゴー！ウエイトレス (セガサターン ヴァージョン)
TTITLE2=遊歩道 (Original Karaoke)
TTITLE3=ゴー！ゴー！ウエイトレス (Original Karaoke)
EXTD=YEAR: 1999
EXTT0=
EXTT1=
EXTT2=
EXTT3=
PLAYORDER=
